GIL03_xslow1_ik
nRows=3
nColumns=375

# SIMM Motion File Header:
name GIL03_xslow1_ik
datacolumns 375
datarows 3
otherdata 1
range 0.27500000 0.29167000
endheader
time	pelvis_tx	pelvis_ty	pelvis_tz	pelvis_tilt	pelvis_list	pelvis_rotation	hip_flexion_r	hip_adduction_r	hip_rotation_r	knee_angle_r	ankle_angle_r	hip_flexion_l	hip_adduction_l	hip_rotation_l	knee_angle_l	ankle_angle_l	lumbar_extension	lumbar_bending	lumbar_rotation	subtalar_angle_r	mtp_angle_r	subtalar_angle_l	mtp_angle_l	asis_r_px	asis_r_py	asis_r_pz	asis_l_px	asis_l_py	asis_l_pz	midasis_px	midasis_py	midasis_pz	psis_r_px	psis_r_py	psis_r_pz	psis_l_px	psis_l_py	psis_l_pz	hip_r_px	hip_r_py	hip_r_pz	hip_l_px	hip_l_py	hip_l_pz	midhip_px	midhip_py	midhip_pz	epicondLat_r_px	epicondLat_r_py	epicondLat_r_pz	epicondMed_r_px	epicondMed_r_py	epicondMed_r_pz	thighwand_r_px	thighwand_r_py	thighwand_r_pz	upperleg1_r_px	upperleg1_r_py	upperleg1_r_pz	upperleg2_r_px	upperleg2_r_py	upperleg2_r_pz	malleolusLat_r_px	malleolusLat_r_py	malleolusLat_r_pz	malleolusMedv_r_px	malleolusMedv_r_py	malleolusMedv_r_pz	shankwand_r_px	shankwand_r_py	shankwand_r_pz	lowerleg1_r_px	lowerleg1_r_py	lowerleg1_r_pz	knee_r_px	knee_r_py	knee_r_pz	ankle_r_px	ankle_r_py	ankle_r_pz	toe_r_px	toe_r_py	toe_r_pz	epicondLat_l_px	epicondLat_l_py	epicondLat_l_pz	epicondMed_l_px	epicondMed_l_py	epicondMed_l_pz	thighwand_l_px	thighwand_l_py	thighwand_l_pz	upperleg1_l_px	upperleg1_l_py	upperleg1_l_pz	upperleg2_l_px	upperleg2_l_py	upperleg2_l_pz	malleolusLat_l_px	malleolusLat_l_py	malleolusLat_l_pz	malleolusMedv_l_px	malleolusMedv_l_py	malleolusMedv_l_pz	shankwand_l_px	shankwand_l_py	shankwand_l_pz	lowerleg1_l_px	lowerleg1_l_py	lowerleg1_l_pz	knee_l_px	knee_l_py	knee_l_pz	ankle_l_px	ankle_l_py	ankle_l_pz	toe_l_px	toe_l_py	toe_l_pz	subclavicle_r_px	subclavicle_r_py	subclavicle_r_pz	subclavicle_l_px	subclavicle_l_py	subclavicle_l_pz	neck_px	neck_py	neck_pz	sternalnotch_px	sternalnotch_py	sternalnotch_pz	xyphoidprocess_px	xyphoidprocess_py	xyphoidprocess_pz	midhip_tx	midhip_ty	midhip_tz	hip_r_tx	hip_r_ty	hip_r_tz	hip_l_tx	hip_l_ty	hip_l_tz	knee_r_tx	knee_r_ty	knee_r_tz	knee_l_tx	knee_l_ty	knee_l_tz	ankle_r_tx	ankle_r_ty	ankle_r_tz	ankle_l_tx	ankle_l_ty	ankle_l_tz	midasis_tx	midasis_ty	midasis_tz	asis_r_tx	asis_r_ty	asis_r_tz	asis_l_tx	asis_l_ty	asis_l_tz	psis_r_tx	psis_r_ty	psis_r_tz	psis_l_tx	psis_l_ty	psis_l_tz	epicondLat_r_tx	epicondLat_r_ty	epicondLat_r_tz	epicondLat_l_tx	epicondLat_l_ty	epicondLat_l_tz	epicondMed_r_tx	epicondMed_r_ty	epicondMed_r_tz	epicondMed_l_tx	epicondMed_l_ty	epicondMed_l_tz	malleolusLat_r_tx	malleolusLat_r_ty	malleolusLat_r_tz	malleolusLat_l_tx	malleolusLat_l_ty	malleolusLat_l_tz	malleolusMedv_r_tx	malleolusMedv_r_ty	malleolusMedv_r_tz	malleolusMedv_l_tx	malleolusMedv_l_ty	malleolusMedv_l_tz	neck_tx	neck_ty	neck_tz	subclavicle_r_tx	subclavicle_r_ty	subclavicle_r_tz	subclavicle_l_tx	subclavicle_l_ty	subclavicle_l_tz	sternalnotch_tx	sternalnotch_ty	sternalnotch_tz	xyphoidprocess_tx	xyphoidprocess_ty	xyphoidprocess_tz	thighwand_r_tx	thighwand_r_ty	thighwand_r_tz	thighwand_l_tx	thighwand_l_ty	thighwand_l_tz	upperleg1_r_tx	upperleg1_r_ty	upperleg1_r_tz	upperleg1_l_tx	upperleg1_l_ty	upperleg1_l_tz	upperleg2_r_tx	upperleg2_r_ty	upperleg2_r_tz	upperleg2_l_tx	upperleg2_l_ty	upperleg2_l_tz	shankwand_r_tx	shankwand_r_ty	shankwand_r_tz	shankwand_l_tx	shankwand_l_ty	shankwand_l_tz	lowerleg1_r_tx	lowerleg1_r_ty	lowerleg1_r_tz	lowerleg1_l_tx	lowerleg1_l_ty	lowerleg1_l_tz	toe_r_tx	toe_r_ty	toe_r_tz	toe_l_tx	toe_l_ty	toe_l_tz	ground_force_vx	ground_force_vy	ground_force_vz	ground_force_px	ground_force_py	ground_force_pz	ground_force_vx	ground_force_vy	ground_force_vz	ground_force_px	ground_force_py	ground_force_pz	ground_torque_x	ground_torque_y	ground_torque_z	ground_torque_x	ground_torque_y	ground_torque_z	ground_marker_px	ground_marker_py	ground_marker_pz	ground_marker_px	ground_marker_py	ground_marker_pz	ground_marker_px	ground_marker_py	ground_marker_pz	ground_marker_px	ground_marker_py	ground_marker_pz	ground_marker_px	ground_marker_py	ground_marker_pz	ground_marker_px	ground_marker_py	ground_marker_pz	ground_marker_px	ground_marker_py	ground_marker_pz	ground_marker_px	ground_marker_py	ground_marker_pz	ground_marker_px	ground_marker_py	ground_marker_pz	ground_marker_px	ground_marker_py	ground_marker_pz	ground_marker_px	ground_marker_py	ground_marker_pz	ground_marker_px	ground_marker_py	ground_marker_pz	ground_marker_px	ground_marker_py	ground_marker_pz	ground_marker_px	ground_marker_py	ground_marker_pz	ground_marker_px	ground_marker_py	ground_marker_pz	ground_marker_px	ground_marker_py	ground_marker_pz	ground_marker_px	ground_marker_py	ground_marker_pz	ground_marker_px	ground_marker_py	ground_marker_pz	ground_marker_px	ground_marker_py	ground_marker_pz	ground_marker_px	ground_marker_py	ground_marker_pz	ground_marker_px	ground_marker_py	ground_marker_pz	ground_marker_px	ground_marker_py	ground_marker_pz	ground_marker_px	ground_marker_py	ground_marker_pz	ground_marker_px	ground_marker_py	ground_marker_pz	ground_marker_px	ground_marker_py	ground_marker_pz	ground_marker_px	ground_marker_py	ground_marker_pz	ground_marker_px	ground_marker_py	ground_marker_pz	ground_marker_px	ground_marker_py	ground_marker_pz	ground_marker_px	ground_marker_py	ground_marker_pz	ground_marker_px	ground_marker_py	ground_marker_pz	ground_marker_px	ground_marker_py	ground_marker_pz	ground_marker_px	ground_marker_py	ground_marker_pz	ground_marker_px	ground_marker_py	ground_marker_pz	ground_marker_px	ground_marker_py	ground_marker_pz	ground_marker_px	ground_marker_py	ground_marker_pz	ground_marker_px	ground_marker_py	ground_marker_pz	ground_marker_px	ground_marker_py	ground_marker_pz
      0.27500000	      1.45217547	      0.88755752	     -0.26851068	      2.93499251	      2.33409153	     -6.09864585	     -4.29922698	     -7.99067909	     -8.65848662	    -45.80716943	      0.80765510	     10.50457688	      5.15390502	      5.56275767	    -17.80645045	      5.11872034	    -13.25339337	     -2.40955498	      6.40687537	      0.00000000	      0.00000000	      0.00000000	      0.00000000	      1.49096463	      0.88896733	     -0.17097860	      1.49438466	      0.89127897	     -0.37264501	      1.46313481	      0.88807160	     -0.26733942	      1.33905855	      0.93435961	     -0.24938486	      1.33965825	      0.93569269	     -0.30427177	      1.39265014	      0.82995849	     -0.21116559	      1.40634191	      0.83599739	     -0.34192874	      1.39949602	      0.83297794	     -0.27654716	      1.38933153	      0.44650763	     -0.10895678	      1.38913495	      0.43035183	     -0.21729574	      1.54293587	      0.59980986	     -0.15913484	      1.46574184	      0.65972279	     -0.13281143	      1.44945799	      0.57559420	     -0.12505377	      1.06396646	      0.18073475	     -0.19031016	      1.11206597	      0.16009931	     -0.24188431	      1.13200425	      0.27186223	     -0.10547912	      1.15099830	      0.26879589	     -0.14319997	      1.38092115	      0.45191142	     -0.17630796	      1.09346923	      0.17904356	     -0.22302065	      1.12640486	      0.07879029	     -0.15133535	      1.52083117	      0.46308465	     -0.37125675	      1.48568038	      0.44943387	     -0.26865600	      1.59174824	      0.65045885	     -0.28799509	      1.52744037	      0.67654150	     -0.36155068	      1.54348302	      0.59066432	     -0.35024530	      1.45718384	      0.05685099	     -0.35822875	      1.47226209	      0.06760392	     -0.29284699	      1.43312898	      0.17536411	     -0.42378585	      1.44436292	      0.18063597	     -0.38233726	      1.48802726	      0.47049946	     -0.31644863	      1.45601992	      0.07270243	     -0.31567470	      1.58074762	      0.03000069	     -0.34161491	      1.46416997	      1.27374135	     -0.21126813	      1.46520680	      1.27345537	     -0.32047826	      1.36202467	      1.32615264	     -0.26263365	      1.44930732	      1.28240943	     -0.27125955	      1.52882279	      1.12638943	     -0.26884986	      1.40528700	      0.83778900	     -0.28531300	      1.40224500	      0.81825200	     -0.22095100	      1.40583800	      0.82041900	     -0.33834800	      1.38444400	      0.43768300	     -0.18210000	      1.48482900	      0.47101200	     -0.31005800	      1.09601400	      0.17218500	     -0.21866200	      1.45251500	      0.06566500	     -0.30785900	      1.46200700	      0.90023800	     -0.27042000	      1.45045800	      0.89709500	     -0.17034400	      1.47355600	      0.90338100	     -0.37049500	      1.30246700	      0.92580800	     -0.26502200	      1.30852700	      0.92759600	     -0.31991100	      1.37953900	      0.44347300	     -0.12762600	      1.50989700	      0.47276400	     -0.35841900	      1.39885900	      0.43017600	     -0.23737700	      1.46217700	      0.45333400	     -0.27572800	      1.08346700	      0.18095200	     -0.18333600	      1.46800700	      0.06423900	     -0.34307500	      1.12301300	      0.17513700	     -0.24471200	      1.46794800	      0.07802100	     -0.27826500	      1.36772000	      1.34023000	     -0.26225000	      1.46171400	      1.26280400	     -0.21215300	      1.46482100	      1.26334000	     -0.31937500	      1.44886900	      1.27482500	     -0.27111900	      1.49492700	      1.10543300	     -0.26976700	      1.53321400	      0.61008500	     -0.16451000	      1.56598100	      0.65703600	     -0.26849000	      1.45066400	      0.66191600	     -0.14161800	      1.51618500	      0.68348500	     -0.35200100	      1.44102800	      0.57671400	     -0.13772600	      1.53132300	      0.59799000	     -0.34023600	      1.15908000	      0.27080500	     -0.10357200	      1.46329200	      0.17846500	     -0.41653800	      1.17273400	      0.27228600	     -0.14340900	      1.46283800	      0.18604200	     -0.37413600	      1.15222300	      0.07628100	     -0.18850800	      1.58336800	      0.03842600	     -0.29123000	      0.00000000	      0.00000000	      0.00000000	      1.74612659	      0.00000000	     -0.17225044	    -25.74773888	    408.42163588	     15.97052430	      1.49683496	      0.00000000	     -0.30824509	      0.00000000	      0.00000000	      0.00000000	      0.00000000	      1.85713184	      0.00000000	      1.40528727	      0.83778930	     -0.28531274	      1.40224469	      0.81825203	     -0.22095129	      1.40583789	      0.82041883	     -0.33834815	      1.38444400	      0.43768299	     -0.18210030	      1.48482943	      0.47101197	     -0.31005824	      1.09601426	      0.17218527	     -0.21866214	      1.45251465	      0.06566507	     -0.30785871	      1.46200705	      0.90023810	     -0.27041960	      1.45045769	      0.89709544	     -0.17034404	      1.47355628	      0.90338075	     -0.37049514	      1.30246651	      0.92580801	     -0.26502186	      1.30852664	      0.92759639	     -0.31991094	      1.37953854	      0.44347349	     -0.12762637	      1.50989735	      0.47276357	     -0.35841915	      1.39885890	      0.43017614	     -0.23737745	      1.46217656	      0.45333412	     -0.27572787	      1.08346653	      0.18095203	     -0.18333584	      1.46800661	      0.06423894	     -0.34307536	      1.12301254	      0.17513677	     -0.24471246	      1.46794808	      0.07802140	     -0.27826521	      1.36771989	      1.34023035	     -0.26224998	      1.46171379	      1.26280379	     -0.21215291	      1.46482062	      1.26333964	     -0.31937522	      1.44886935	      1.27482545	     -0.27111915	      1.49492657	      1.10543334	     -0.26976717	      1.53321421	      0.61008513	     -0.16450998	      1.56598079	      0.65703619	     -0.26848972	      1.45066416	      0.66191602	     -0.14161830	      1.51618528	      0.68348509	     -0.35200131	      1.44102848	      0.57671404	     -0.13772625	      1.53132260	      0.59799021	     -0.34023562	      1.15907967	      0.27080455	     -0.10357236	      1.46329212	      0.17846523	     -0.41653824	      1.17273390	      0.27228603	     -0.14340904	      1.46283782	      0.18604238	     -0.37413642	      1.15222323	      0.07628136	     -0.18850812	      1.58336771	      0.03842560	     -0.29123002
      0.28333000	      1.45757201	      0.88804496	     -0.26946712	      3.03541100	      2.30168801	     -6.05305934	     -3.46624027	     -8.14713281	     -8.71015963	    -47.42658520	      1.46849473	     10.10661523	      5.21234789	      5.29871463	    -17.96769911	      5.50790579	    -13.31507291	     -2.30539919	      6.22269020	      0.00000000	      0.00000000	      0.00000000	      0.00000000	      1.49643309	      0.88958318	     -0.17196561	      1.49969493	      0.89177853	     -0.37363594	      1.46853131	      0.88857931	     -0.26830456	      1.34438637	      0.93465670	     -0.25028311	      1.34494176	      0.93595755	     -0.30517126	      1.39819341	      0.83037460	     -0.21204164	      1.41177449	      0.83635857	     -0.34281886	      1.40498395	      0.83336659	     -0.27743025	      1.40094205	      0.44741991	     -0.10797259	      1.40108909	      0.43073793	     -0.21623185	      1.55210840	      0.60292014	     -0.15878717	      1.47394336	      0.66171462	     -0.13280958	      1.45900410	      0.57737436	     -0.12465454	      1.07273835	      0.18444310	     -0.19098129	      1.12078367	      0.16338229	     -0.24243385	      1.14149543	      0.27461775	     -0.10571312	      1.16058562	      0.27142086	     -0.14337454	      1.39265863	      0.45202033	     -0.17527909	      1.10233443	      0.18249264	     -0.22359290	      1.13497873	      0.08241663	     -0.15152765	      1.52403678	      0.46276178	     -0.37204986	      1.48935954	      0.44949791	     -0.26923743	      1.59643513	      0.64989439	     -0.28952295	      1.53188073	      0.67619639	     -0.36278390	      1.54750733	      0.59025270	     -0.35140143	      1.45710992	      0.05702179	     -0.35815381	      1.47262207	      0.06773123	     -0.29286649	      1.43369253	      0.17564812	     -0.42373696	      1.44518865	      0.18087857	     -0.38235506	      1.49160260	      0.47045214	     -0.31707398	      1.45630234	      0.07293572	     -0.31561483	      1.58078736	      0.02997796	     -0.34228776	      1.46902017	      1.27411057	     -0.21171859	      1.47034982	      1.27390202	     -0.32092573	      1.36697026	      1.32647498	     -0.26332099	      1.45431125	      1.28280866	     -0.27174355	      1.53394684	      1.12685158	     -0.26922987	      1.41068400	      0.83809600	     -0.28581200	      1.40766100	      0.81857200	     -0.22163300	      1.41111900	      0.82065100	     -0.33903500	      1.39585100	      0.43792000	     -0.18062700	      1.48830700	      0.47085600	     -0.31047900	      1.10540700	      0.17602900	     -0.21990500	      1.45269800	      0.06579300	     -0.30781100	      1.46722800	      0.90062000	     -0.27123300	      1.45579700	      0.89753800	     -0.17115400	      1.47865800	      0.90370200	     -0.37131200	      1.30766700	      0.92587400	     -0.26534800	      1.31372000	      0.92768600	     -0.32039400	      1.39085600	      0.44394000	     -0.12618700	      1.51311500	      0.47237000	     -0.35898200	      1.41057100	      0.42992700	     -0.23574700	      1.46582300	      0.45342600	     -0.27601000	      1.09269000	      0.18484500	     -0.18465100	      1.46808700	      0.06420800	     -0.34306600	      1.13319600	      0.17838300	     -0.24557900	      1.46815800	      0.07804000	     -0.27825600	      1.37270900	      1.34058700	     -0.26284900	      1.46662200	      1.26312400	     -0.21266600	      1.46983200	      1.26360800	     -0.31996200	      1.45385600	      1.27512700	     -0.27169400	      1.49980000	      1.10570800	     -0.27021400	      1.54238600	      0.61246200	     -0.16386800	      1.57080900	      0.65657100	     -0.26970200	      1.45930500	      0.66281200	     -0.14144400	      1.52065700	      0.68313200	     -0.35304100	      1.45077700	      0.57775100	     -0.13701900	      1.53538800	      0.59757000	     -0.34120400	      1.16874800	      0.27373000	     -0.10425600	      1.46411200	      0.17838400	     -0.41666300	      1.18272900	      0.27515700	     -0.14412700	      1.46389300	      0.18599000	     -0.37423400	      1.16106000	      0.08011100	     -0.18683600	      1.58343600	      0.03838300	     -0.29125600	      0.00000000	      0.00000000	      0.00000000	      1.74817456	      0.00000000	     -0.17270007	    -25.93384824	    408.08148405	     15.82068473	      1.49959143	      0.00000000	     -0.30768292	      0.00000000	      0.00000000	      0.00000000	      0.00000000	      1.85456226	      0.00000000	      1.41068351	      0.83809608	     -0.28581247	      1.40766060	      0.81857163	     -0.22163270	      1.41111910	      0.82065105	     -0.33903518	      1.39585125	      0.43792006	     -0.18062750	      1.48830736	      0.47085550	     -0.31047919	      1.10540736	      0.17602867	     -0.21990466	      1.45269799	      0.06579328	     -0.30781117	      1.46722770	      0.90062010	     -0.27123293	      1.45579684	      0.89753789	     -0.17115392	      1.47865844	      0.90370232	     -0.37131196	      1.30766726	      0.92587370	     -0.26534763	      1.31371963	      0.92768580	     -0.32039410	      1.39085627	      0.44393960	     -0.12618655	      1.51311469	      0.47237009	     -0.35898226	      1.41057110	      0.42992678	     -0.23574661	      1.46582341	      0.45342556	     -0.27601045	      1.09269011	      0.18484530	     -0.18465145	      1.46808672	      0.06420823	     -0.34306630	      1.13319600	      0.17838271	     -0.24557905	      1.46815848	      0.07803972	     -0.27825594	      1.37270939	      1.34058738	     -0.26284871	      1.46662188	      1.26312435	     -0.21266595	      1.46983171	      1.26360846	     -0.31996244	      1.45385551	      1.27512658	     -0.27169371	      1.49980009	      1.10570812	     -0.27021372	      1.54238558	      0.61246192	     -0.16386780	      1.57080901	      0.65657085	     -0.26970205	      1.45930481	      0.66281176	     -0.14144444	      1.52065670	      0.68313229	     -0.35304096	      1.45077741	      0.57775116	     -0.13701874	      1.53538823	      0.59756958	     -0.34120360	      1.16874766	      0.27373037	     -0.10425637	      1.46411192	      0.17838445	     -0.41666299	      1.18272901	      0.27515706	     -0.14412698	      1.46389341	      0.18599030	     -0.37423444	      1.16106045	      0.08011061	     -0.18683618	      1.58343554	      0.03838320	     -0.29125550
      0.29167000	      1.46296384	      0.88853989	     -0.27046527	      3.13689103	      2.26163139	     -5.99272771	     -2.65526229	     -8.29024868	     -8.76939730	    -48.88978110	      2.14362351	      9.69924101	      5.26404558	      5.00670422	    -18.11332288	      5.89533348	    -13.34783485	     -2.17282072	      6.03499974	      0.00000000	      0.00000000	      0.00000000	      0.00000000	      1.50192074	      0.89022223	     -0.17300439	      1.50497444	      0.89227110	     -0.37467952	      1.47392331	      0.88909499	     -0.26931422	      1.34971333	      0.93496087	     -0.25120168	      1.35021080	      0.93622124	     -0.30609133	      1.40374808	      0.83080540	     -0.21293617	      1.41718589	      0.83671516	     -0.34373157	      1.41046699	      0.83376028	     -0.27833387	      1.41244541	      0.44843478	     -0.10706230	      1.41292856	      0.43124838	     -0.21524165	      1.56118326	      0.60605196	     -0.15851697	      1.48208591	      0.66373166	     -0.13286426	      1.46846877	      0.57920621	     -0.12432103	      1.08205124	      0.18757375	     -0.19149240	      1.13006951	      0.16617540	     -0.24283081	      1.15133656	      0.27698936	     -0.10585329	      1.17051598	      0.27368752	     -0.14346029	      1.40428001	      0.45227553	     -0.17432537	      1.11173126	      0.18541647	     -0.22401458	      1.14436535	      0.08564628	     -0.15152194	      1.52713617	      0.46242632	     -0.37289726	      1.49301247	      0.44956334	     -0.26984896	      1.60110272	      0.64930456	     -0.29118861	      1.53625306	      0.67583048	     -0.36410725	      1.55145874	      0.58982153	     -0.35264796	      1.45699035	      0.05720979	     -0.35799212	      1.47298415	      0.06788517	     -0.29281553	      1.43414874	      0.17593006	     -0.42360832	      1.44593730	      0.18112534	     -0.38230435	      1.49511414	      0.47040195	     -0.31773338	      1.45657032	      0.07319066	     -0.31547265	      1.58078957	      0.02998183	     -0.34296642	      1.47368095	      1.27451852	     -0.21211718	      1.47529511	      1.27441876	     -0.32132064	      1.37169341	      1.32679259	     -0.26393403	      1.45911630	      1.28325509	     -0.27217173	      1.53896057	      1.12740564	     -0.26960287	      1.41611900	      0.83847000	     -0.28627600	      1.41305900	      0.81890600	     -0.22229700	      1.41635000	      0.82087900	     -0.33970600	      1.40712600	      0.43831300	     -0.17918900	      1.49169600	      0.47070200	     -0.31087700	      1.11533500	      0.17933500	     -0.22104100	      1.45286500	      0.06590800	     -0.30774500	      1.47241500	      0.90101000	     -0.27205800	      1.46113200	      0.89800400	     -0.17198400	      1.48369800	      0.90401500	     -0.37213300	      1.31283600	      0.92593600	     -0.26561900	      1.31887300	      0.92778000	     -0.32083500	      1.40204800	      0.44455500	     -0.12478100	      1.51620300	      0.47196900	     -0.35954100	      1.42258300	      0.42990700	     -0.23423200	      1.46942700	      0.45345500	     -0.27632100	      1.10236100	      0.18827700	     -0.18591300	      1.46814200	      0.06417000	     -0.34304200	      1.14368600	      0.18084900	     -0.24630800	      1.46833400	      0.07798900	     -0.27821000	      1.37733900	      1.34090700	     -0.26337500	      1.47128100	      1.26335800	     -0.21301900	      1.47472500	      1.26389500	     -0.32048300	      1.45872400	      1.27545000	     -0.27222400	      1.50463400	      1.10598000	     -0.27065800	      1.55145300	      0.61492500	     -0.16327000	      1.57563100	      0.65603500	     -0.27098600	      1.46780800	      0.66398000	     -0.14126800	      1.52504100	      0.68275400	     -0.35400600	      1.46053600	      0.57894100	     -0.13635300	      1.53935300	      0.59711500	     -0.34218900	      1.17851700	      0.27657100	     -0.10500000	      1.46487000	      0.17830000	     -0.41677100	      1.19290800	      0.27790200	     -0.14486200	      1.46482300	      0.18589700	     -0.37431100	      1.17056900	      0.08369600	     -0.18503300	      1.58349600	      0.03834600	     -0.29127600	      0.00000000	      0.00000000	      0.00000000	      1.75035840	      0.00000000	     -0.17315359	    -26.10741563	    407.74870501	     15.39997423	      1.50281323	      0.00000000	     -0.30699432	      0.00000000	      0.00000000	      0.00000000	      0.00000000	      1.82772510	      0.00000000	      1.41611934	      0.83847046	     -0.28627628	      1.41305923	      0.81890619	     -0.22229660	      1.41635025	      0.82087928	     -0.33970574	      1.40712643	      0.43831331	     -0.17918904	      1.49169636	      0.47070184	     -0.31087747	      1.11533487	      0.17933525	     -0.22104105	      1.45286489	      0.06590818	     -0.30774495	      1.47241533	      0.90100974	     -0.27205828	      1.46113217	      0.89800423	     -0.17198364	      1.48369849	      0.90401524	     -0.37213293	      1.31283641	      0.92593598	     -0.26561949	      1.31887329	      0.92778003	     -0.32083523	      1.40204787	      0.44455495	     -0.12478087	      1.51620257	      0.47196853	     -0.35954055	      1.42258275	      0.42990714	     -0.23423231	      1.46942651	      0.45345476	     -0.27632061	      1.10236061	      0.18827666	     -0.18591318	      1.46814167	      0.06416954	     -0.34304151	      1.14368570	      0.18084866	     -0.24630848	      1.46833360	      0.07798928	     -0.27820969	      1.37733924	      1.34090698	     -0.26337546	      1.47128117	      1.26335824	     -0.21301922	      1.47472477	      1.26389527	     -0.32048264	      1.45872378	      1.27545035	     -0.27222443	      1.50463378	      1.10598028	     -0.27065825	      1.55145252	      0.61492467	     -0.16326950	      1.57563102	      0.65603548	     -0.27098560	      1.46780837	      0.66398007	     -0.14126833	      1.52504110	      0.68275398	     -0.35400558	      1.46053553	      0.57894075	     -0.13635254	      1.53935277	      0.59711486	     -0.34218937	      1.17851734	      0.27657139	     -0.10499988	      1.46487045	      0.17830001	     -0.41677135	      1.19290841	      0.27790198	     -0.14486168	      1.46482348	      0.18589671	     -0.37431082	      1.17056870	      0.08369637	     -0.18503341	      1.58349609	      0.03834616	     -0.29127628
